<?xml version="1.0" standalone="no"?>
<!DOCTYPE svg PUBLIC "-//W3C//DTD SVG 20010904//EN"
 "http://www.w3.org/TR/2001/REC-SVG-20010904/DTD/svg10.dtd">
<svg version="1.0" xmlns="http://www.w3.org/2000/svg"
 width="180.000000pt" height="180.000000pt" viewBox="0 0 180.000000 180.000000"
 preserveAspectRatio="xMidYMid meet">

<g transform="translate(0.000000,180.000000) scale(0.100000,-0.100000)"
fill="#000000" stroke="none">
<path d="M20 1780 c-20 -20 -20 -33 -20 -884 l0 -865 22 -15 c20 -14 120 -16
884 -16 l862 0 16 25 c14 22 16 109 16 878 l0 854 -23 21 -23 22 -857 0 c-844
0 -857 0 -877 -20z m858 -275 c122 -29 211 -95 259 -194 25 -49 28 -67 28
-151 0 -76 -4 -104 -22 -142 -51 -110 -162 -189 -299 -211 l-74 -12 0 -197 0
-198 125 0 c100 0 135 4 178 20 91 34 137 103 137 202 -1 92 -50 166 -134 198
l-29 11 53 54 53 54 30 -17 c61 -36 107 -85 138 -148 29 -58 32 -75 33 -152 0
-73 -4 -96 -26 -143 -35 -77 -88 -132 -159 -168 -89 -44 -143 -52 -352 -49
l-187 3 0 530 0 530 70 3 70 3 0 -197 0 -197 49 6 c86 10 166 65 190 130 15
40 14 141 -3 180 -7 18 -29 47 -49 64 -54 47 -120 63 -260 63 l-119 0 3 -557
3 -558 -72 -3 -72 -3 0 631 0 630 188 0 c130 0 206 -5 250 -15z"/>
</g>
</svg>
