<svg xmlns="http://www.w3.org/2000/svg" width="24" height="24" viewBox="0 0 24 24">
  
  <title>Ресурс 1</title>
  <g>
	  <path fill="#fff" d="M13.55,24H10.41c-.34,0-.68-.05-1-.06a14.88,14.88,0,0,1-3.92-.64A7.16,7.16,0,0,1,.92,19.14a12.88,12.88,0,0,1-.84-4c0-.34,0-.68-.08-1V9.91a.32.32,0,0,0,0-.09c0-.48.05-1,.09-1.45A12.1,12.1,0,0,1,.91,4.92a7,7,0,0,1,3.35-3.7A11.89,11.89,0,0,1,8.94.08l1-.08h4.59l.53.08a15.36,15.36,0,0,1,3.08.51,7.56,7.56,0,0,1,3.59,2.16,7.81,7.81,0,0,1,1.68,3.13A16.42,16.42,0,0,1,24,9.76c0,.29,0,.59.05.89v2.7a1.08,1.08,0,0,0,0,.19,22.06,22.06,0,0,1-.32,3.63,9,9,0,0,1-1.19,3.14,7.32,7.32,0,0,1-4.32,3.1,17,17,0,0,1-4.07.55Zm-3.29-4.93h3.68a5.78,5.78,0,0,0,.72,0,4.37,4.37,0,0,0,2.85-1.32,3.88,3.88,0,0,0,.79-4.22,3.66,3.66,0,0,0-1.79-2l-1.06,1.23.08,0a2.2,2.2,0,0,1,1.38,2.15,2.22,2.22,0,0,1-1,2,3.15,3.15,0,0,1-1.7.52c-.65,0-1.31,0-2,0h-.36V13.08l.63-.08a4,4,0,0,0,3.6-3.76A3.78,3.78,0,0,0,15,6.16a4.52,4.52,0,0,0-3.13-1.22c-1.29,0-2.59,0-3.88,0H7.85V18.2H9.51V6.5h.11c.7,0,1.4,0,2.1,0a4.27,4.27,0,0,1,1.07.17,2.17,2.17,0,0,1,1.6,1.5,2.9,2.9,0,0,1,0,1.49,2.47,2.47,0,0,1-2.5,1.82V7.69H10.26Z"/>
    <path d="M15.43,12.73l1-1.15a.23.23,0,0,1,.18,0,3.71,3.71,0,0,1,1.88,2.53,3.94,3.94,0,0,1-3.07,4.8,6.81,6.81,0,0,1-1.43.16c-1.17,0-2.33,0-3.49,0h-.23V7.68h1.66v3.81a3.12,3.12,0,0,0,1.32-.35,2.2,2.2,0,0,0,1.23-2.26,3.52,3.52,0,0,0-.13-.8,2.29,2.29,0,0,0-1.87-1.49,5.67,5.67,0,0,0-1-.1h-2V18.21H7.86V4.93h.21c1.28,0,2.55,0,3.83,0a4.34,4.34,0,0,1,3.62,1.84,4,4,0,0,1-1.68,5.84,5.07,5.07,0,0,1-1.75.44l-.15,0v4.4l.06,0c.84,0,1.69,0,2.53-.05a2.52,2.52,0,0,0,2-1,2.48,2.48,0,0,0-1-3.66Z"/>
  </g>
</svg>
